<svg width="22" height="21" viewBox="0 0 22 21" fill="none" xmlns="http://www.w3.org/2000/svg">
<path d="M19.794 4.94444V2.72222C19.794 1.49667 18.8073 0.5 17.594 0.5H3.29402C1.47462 0.5 -0.00598145 1.99556 -0.00598145 3.83333V17.1667C-0.00598145 19.6122 1.96742 20.5 3.29402 20.5H19.794C21.0073 20.5 21.994 19.5033 21.994 18.2778V7.16667C21.994 5.94111 21.0073 4.94444 19.794 4.94444ZM17.594 14.9444H15.394V10.5H17.594V14.9444ZM3.29402 4.94444C3.01079 4.93165 2.74336 4.80899 2.54742 4.60202C2.35148 4.39505 2.24212 4.11971 2.24212 3.83333C2.24212 3.54696 2.35148 3.27162 2.54742 3.06465C2.74336 2.85767 3.01079 2.73502 3.29402 2.72222H17.594V4.94444H3.29402Z" fill="white"/>
</svg>
