<svg width="26" height="25" viewBox="0 0 26 25" fill="none" xmlns="http://www.w3.org/2000/svg">
<path d="M24.0696 0.828002C23.7486 0.851358 23.4335 0.92667 23.1366 1.051H23.1326C22.8476 1.164 21.4926 1.734 19.4326 2.598L12.0506 5.707C6.75363 7.937 1.54663 10.133 1.54663 10.133L1.60863 10.109C1.60863 10.109 1.24963 10.227 0.87463 10.484C0.642958 10.6314 0.443604 10.8243 0.28863 11.051C0.10463 11.321 -0.0433696 11.734 0.0116304 12.161C0.10163 12.883 0.56963 13.316 0.90563 13.555C1.24563 13.797 1.56963 13.91 1.56963 13.91H1.57763L6.46063 15.555C6.67963 16.258 7.94863 20.43 8.25363 21.391C8.43363 21.965 8.60863 22.324 8.82763 22.598C8.93363 22.738 9.05763 22.855 9.20663 22.949C9.28409 22.9941 9.36668 23.0296 9.45263 23.055L9.40263 23.043C9.41763 23.047 9.42963 23.059 9.44063 23.063C9.48063 23.074 9.50763 23.078 9.55863 23.086C10.3316 23.32 10.9526 22.84 10.9526 22.84L10.9876 22.812L13.8706 20.187L18.7026 23.894L18.8126 23.941C19.8196 24.383 20.8396 24.137 21.3786 23.703C21.9216 23.266 22.1326 22.707 22.1326 22.707L22.1676 22.617L25.9016 3.488C26.0076 3.016 26.0346 2.574 25.9176 2.145C25.797 1.71083 25.5184 1.33741 25.1366 1.098C24.8161 0.903117 24.4443 0.80905 24.0696 0.828002ZM23.9686 2.878C23.9646 2.941 23.9766 2.934 23.9486 3.055V3.066L20.2496 21.996C20.2336 22.023 20.2066 22.082 20.1326 22.141C20.0546 22.203 19.9926 22.242 19.6676 22.113L13.7576 17.582L10.1876 20.836L10.9376 16.046L20.5936 7.046C20.9916 6.676 20.8586 6.598 20.8586 6.598C20.8866 6.144 20.2576 6.465 20.2576 6.465L8.08163 14.008L8.07763 13.988L2.24163 12.023V12.019L2.22663 12.016C2.23686 12.0126 2.24688 12.0086 2.25663 12.004L2.28863 11.988L2.31963 11.977C2.31963 11.977 7.53063 9.781 12.8276 7.551C15.4796 6.434 18.1516 5.309 20.2066 4.441C21.4254 3.92801 22.6454 3.418 23.8666 2.911C23.9486 2.879 23.9096 2.878 23.9686 2.878Z" fill="white"/>
</svg>
