<svg width="23" height="20" viewBox="0 0 23 20" fill="none" xmlns="http://www.w3.org/2000/svg">
<path fill-rule="evenodd" clip-rule="evenodd" d="M0.862709 7.65584H19.2266C19.4564 7.65584 19.6671 7.75075 19.8394 7.92158L22.7501 10.8826C23.2862 11.4331 22.9033 12.3631 22.1373 12.3631H3.77336C3.54357 12.3631 3.33293 12.2682 3.16059 12.0974L0.249939 9.13636C-0.286234 8.58591 0.096747 7.65584 0.862709 7.65584ZM0.249939 3.72677L3.16059 0.765734C3.31379 0.594905 3.54357 0.5 3.77336 0.5H22.1181C22.8841 0.5 23.2671 1.43007 22.7309 1.98052L19.8394 4.94156C19.6862 5.11239 19.4564 5.20729 19.2266 5.20729H0.862709C0.096747 5.20729 -0.286234 4.27722 0.249939 3.72677ZM22.7309 16.2732L19.8203 19.2343C19.6479 19.4051 19.4373 19.5 19.2075 19.5H0.862709C0.096747 19.5 -0.286234 18.5699 0.249939 18.0195L3.16059 15.0584C3.31379 14.8876 3.54357 14.7927 3.77336 14.7927H22.1181C22.8841 14.7927 23.2671 15.7228 22.7309 16.2732Z" fill="white"/>
</svg>
