<svg width="21" height="21" viewBox="0 0 21 21" fill="none" xmlns="http://www.w3.org/2000/svg">
<path d="M21 7.1819C21.0001 8.60079 20.5804 9.98798 19.7937 11.1687C19.0069 12.3494 17.8884 13.2708 16.5789 13.8168V13.8146C16.5789 11.3225 15.5891 8.93254 13.8273 7.17039C12.0654 5.40824 9.67585 4.41828 7.18421 4.41828H7.182C7.82174 2.88583 8.97229 1.62223 10.4381 0.842216C11.9039 0.0622043 13.5946 -0.186085 15.2227 0.139547C16.8509 0.465178 18.3161 1.34464 19.3693 2.62846C20.4224 3.91228 20.9987 5.52124 21 7.1819ZM4.97368 0.549208C3.80115 0.549208 2.67664 1.01507 1.84753 1.84432C1.01842 2.67357 0.552632 3.79827 0.552632 4.971V6.62917H2.76316V4.971C2.76316 4.38463 2.99605 3.82228 3.41061 3.40766C3.82516 2.99304 4.38742 2.7601 4.97368 2.7601H6.63158V0.549208H4.97368ZM18.2368 14.3673V16.0255C18.2368 16.6118 18.0039 17.1742 17.5894 17.5888C17.1748 18.0034 16.6126 18.2364 16.0263 18.2364H14.3684V20.4473H16.0263C17.1989 20.4473 18.3234 19.9814 19.1525 19.1522C19.9816 18.3229 20.4474 17.1982 20.4474 16.0255V14.3673H18.2368ZM7.18421 21C9.08958 21 10.9169 20.243 12.2642 18.8954C13.6115 17.5479 14.3684 15.7203 14.3684 13.8146C14.3684 11.9089 13.6115 10.0813 12.2642 8.73373C10.9169 7.38621 9.08958 6.62917 7.18421 6.62917C5.27884 6.62917 3.45151 7.38621 2.10421 8.73373C0.756905 10.0813 0 11.9089 0 13.8146C0 15.7203 0.756905 17.5479 2.10421 18.8954C3.45151 20.243 5.27884 21 7.18421 21ZM7.18421 11.051L9.94737 13.8146L7.18421 16.5782L4.42105 13.8146L7.18421 11.051Z" fill="white"/>
</svg>
