<svg width="20" height="17" viewBox="0 0 20 17" fill="none" xmlns="http://www.w3.org/2000/svg">
<path d="M15.4167 8.5C15.4167 8.71667 15.3342 8.90417 15.1693 9.0625L8.08594 15.8625C7.92101 16.0208 7.72569 16.1 7.5 16.1C7.27431 16.1 7.07899 16.0208 6.91406 15.8625C6.74913 15.7042 6.66667 15.5167 6.66667 15.3V11.7H0.833333C0.607639 11.7 0.412326 11.6208 0.247396 11.4625C0.0824653 11.3042 0 11.1167 0 10.9V6.1C0 5.88333 0.0824653 5.69583 0.247396 5.5375C0.412326 5.37917 0.607639 5.3 0.833333 5.3H6.66667V1.7C6.66667 1.48333 6.74913 1.29583 6.91406 1.1375C7.07899 0.979167 7.27431 0.9 7.5 0.9C7.72569 0.9 7.92101 0.979167 8.08594 1.1375L15.1693 7.9375C15.3342 8.09583 15.4167 8.28333 15.4167 8.5ZM20 4.1V12.9C20 13.8917 19.6332 14.7396 18.8997 15.4438C18.1662 16.1479 17.283 16.5 16.25 16.5H12.0833C11.9705 16.5 11.8728 16.4604 11.7904 16.3813C11.7079 16.3021 11.6667 16.2083 11.6667 16.1C11.6667 16.0667 11.6623 15.9833 11.6536 15.85C11.645 15.7167 11.6428 15.6062 11.6471 15.5188C11.6515 15.4313 11.6645 15.3333 11.6862 15.225C11.7079 15.1167 11.7513 15.0354 11.8164 14.9812C11.8815 14.9271 11.9705 14.9 12.0833 14.9H16.25C16.8229 14.9 17.3134 14.7042 17.7214 14.3125C18.1293 13.9208 18.3333 13.45 18.3333 12.9V4.1C18.3333 3.55 18.1293 3.07917 17.7214 2.6875C17.3134 2.29583 16.8229 2.1 16.25 2.1H12.1875L12.0378 2.0875L11.888 2.05L11.7839 1.98125L11.6927 1.86875L11.6667 1.7C11.6667 1.66667 11.6623 1.58333 11.6536 1.45C11.645 1.31667 11.6428 1.20625 11.6471 1.11875C11.6515 1.03125 11.6645 0.933333 11.6862 0.825C11.7079 0.716667 11.7513 0.635417 11.8164 0.58125C11.8815 0.527083 11.9705 0.5 12.0833 0.5H16.25C17.283 0.5 18.1662 0.852083 18.8997 1.55625C19.6332 2.26042 20 3.10833 20 4.1Z" fill="white"/>
</svg>
