<svg width="21" height="22" viewBox="0 0 21 22" fill="none" xmlns="http://www.w3.org/2000/svg">
<path d="M11.6317 0.292874C10.9317 -0.0976246 10.0683 -0.0976246 9.36835 0.292874L1.20169 4.76064L7.11668 7.98799C7.96835 7.11511 9.17001 6.56382 10.5 6.56382C11.83 6.56382 13.0317 7.11511 13.8833 7.98799L19.7983 4.74915L11.6317 0.292874ZM8.16668 11.1579C8.16668 9.89454 9.21668 8.86087 10.5 8.86087C11.7833 8.86087 12.8333 9.89454 12.8333 11.1579C12.8333 12.4213 11.7833 13.455 10.5 13.455C9.21668 13.455 8.16668 12.4213 8.16668 11.1579ZM2.49985e-05 6.72462L5.98502 9.99791C5.88002 10.3654 5.83335 10.7559 5.83335 11.1579C5.83335 13.2942 7.31502 15.0974 9.33335 15.6027V22L1.20169 17.5552C0.836222 17.3576 0.531684 17.0666 0.320191 16.7129C0.108699 16.3591 -0.00191155 15.9558 2.49985e-05 15.5453V6.72462ZM11.6667 22V15.6027C13.685 15.0974 15.1667 13.2942 15.1667 11.1579C15.1667 10.7559 15.12 10.3654 15.015 9.99791L21 6.72462V15.5453C21 16.3837 20.545 17.1532 19.7983 17.5552L11.6667 22Z" fill="white"/>
</svg>
