<svg width="24" height="32" viewBox="0 0 24 32" fill="none" xmlns="http://www.w3.org/2000/svg">
<path d="M4.0072 3.20001H22.0072V4.75001H4.0072V3.20001Z" fill="white"/>
<path d="M23.0073 6H3.86726C3.61206 5.99638 3.36024 5.94112 3.12698 5.83753C2.89372 5.73395 2.68386 5.5842 2.51005 5.3973C2.33624 5.21041 2.20208 4.99025 2.11567 4.7501C2.02925 4.50995 1.99238 4.25479 2.00726 4C2.00601 3.49296 2.1974 3.00436 2.54271 2.63307C2.88801 2.26177 3.36145 2.03549 3.86726 2H23.0073C23.2725 2 23.5268 1.89464 23.7144 1.70711C23.9019 1.51957 24.0073 1.26522 24.0073 1C24.0073 0.734784 23.9019 0.48043 23.7144 0.292893C23.5268 0.105357 23.2725 0 23.0073 0H3.86726C2.83084 0.0362965 1.84903 0.473694 1.12891 1.21994C0.408776 1.96619 0.00662037 2.96295 0.00725575 4C-0.00241859 4.16319 -0.00241859 4.32681 0.00725575 4.49C-0.00237906 4.56971 -0.00237906 4.65029 0.00725575 4.73V28C0.00662037 29.037 0.408776 30.0338 1.12891 30.7801C1.84903 31.5263 2.83084 31.9637 3.86726 32H23.0073C23.2725 32 23.5268 31.8946 23.7144 31.7071C23.9019 31.5196 24.0073 31.2652 24.0073 31V7.07C24.0078 6.79794 23.9048 6.53587 23.719 6.33711C23.5332 6.13834 23.2787 6.0178 23.0073 6Z" fill="white"/>
</svg>
