<svg width="35" height="32" viewBox="0 0 35 32" fill="none" xmlns="http://www.w3.org/2000/svg">
<path d="M2.59113 0.00327645C3.02337 0.035286 3.44764 0.138504 3.84738 0.308902H3.85277C4.23651 0.463771 6.06096 1.24497 8.83468 2.4291L18.7743 6.69005C25.9065 9.74631 32.9175 12.756 32.9175 12.756L32.834 12.7231C32.834 12.7231 33.3174 12.8848 33.8223 13.237C34.1343 13.4391 34.4027 13.7034 34.6114 14.0141C34.8591 14.3842 35.0584 14.9502 34.9843 15.5354C34.8632 16.5249 34.233 17.1183 33.7806 17.4459C33.3228 17.7776 32.8866 17.9324 32.8866 17.9324H32.8758L26.301 20.1869C26.0061 21.1504 24.2975 26.8682 23.8868 28.1853C23.6444 28.972 23.4088 29.464 23.1139 29.8395C22.9712 30.0314 22.8042 30.1918 22.6036 30.3206C22.4993 30.3823 22.3881 30.4311 22.2724 30.4659L22.3397 30.4494C22.3195 30.4549 22.3034 30.4713 22.2885 30.4768C22.2347 30.4919 22.1983 30.4974 22.1297 30.5083C21.0888 30.829 20.2527 30.1712 20.2527 30.1712L20.2056 30.1328L16.3237 26.5352L9.8176 31.6157L9.66949 31.6801C8.3136 32.2859 6.9402 31.9488 6.21446 31.354C5.48333 30.755 5.19923 29.9889 5.19923 29.9889L5.1521 29.8656L0.124409 3.64886C-0.0183182 3.00198 -0.0546684 2.39621 0.102867 1.80825C0.26535 1.21321 0.640404 0.70143 1.15445 0.373317C1.5861 0.106223 2.08663 -0.022697 2.59113 0.00327645ZM2.72712 2.81285C2.73251 2.89919 2.71635 2.88959 2.75405 3.05543V3.0705L7.73462 29.0145C7.75616 29.0515 7.79252 29.1323 7.89215 29.2132C7.99718 29.2982 8.08066 29.3516 8.51826 29.1748L16.4759 22.965L21.2827 27.4247L20.2729 20.8599L7.27143 8.52518C6.73554 8.01809 6.91462 7.91118 6.91462 7.91118C6.87692 7.28897 7.72385 7.72891 7.72385 7.72891L24.1184 18.0667L24.1238 18.0393L31.9817 15.3463V15.3408L32.0019 15.3367C31.9881 15.332 31.9747 15.3265 31.9615 15.3202L31.9184 15.2983L31.8767 15.2832C31.8767 15.2832 24.8603 12.2736 17.7281 9.21729C14.1572 7.68642 10.5595 6.14458 7.79251 4.95497C6.15152 4.2519 4.50883 3.55293 2.86446 2.85807C2.75405 2.81422 2.80656 2.81285 2.72712 2.81285Z" fill="white"/>
</svg>
